<svg xmlns="http://www.w3.org/2000/svg" xmlns:xlink="http://www.w3.org/1999/xlink" version="1.1" style="" xml:space="preserve" width="64.13043452627494" height="64.13043452627494"><rect id="backgroundrect" width="100%" height="100%" x="0" y="0" fill="none" stroke="none" class="" style=""/><g class="currentLayer" style=""><title>Layer 1</title><path d="M52.57699238737059,38.038719892611 c-0.3820236007265333,0 -0.7446223198018551,0.07035033416371345 -1.0968610754750256,0.17181727950737494 L47.46564542725787,31.920940613425557 l4.01448588463769,-6.2902730308551895 c0.3522387556731701,0.10011400101890576 0.714837474748492,0.17114094588117623 1.0968610754750256,0.17114094588117623 c2.3154518866847518,0 4.199670180723333,-1.968458351765728 4.199670180723333,-4.3874299851888905 s-1.884218294038582,-4.3874299851888905 -4.199670180723333,-4.3874299851888905 c-1.159020855887938,0 -2.209262162357045,0.49245289329071107 -2.969424493565893,1.28795353975147 l-13.00304911485393,-6.792872590973031 c0.027194887354707754,-0.20225741852494505 0.05956982271425732,-0.4031618927251341 0.05956982271425732,-0.6128602279638777 c0,-2.418971633423162 -1.884218294038582,-4.3874299851888905 -4.199670180723333,-4.3874299851888905 s-4.199670180723333,1.968458351765728 -4.199670180723333,4.3874299851888905 c0,0.20969833523874296 0.031727412783002895,0.4106028094389324 0.05956982271425732,0.6128602279638777 l-13.00304911485393,6.792872590973031 c-0.7608098537853961,-0.7955007849969383 -1.8110511602545025,-1.28795353975147 -2.969424493565893,-1.28795353975147 c-2.3154518866847518,0 -4.199670180723333,1.968458351765728 -4.199670180723333,4.3874299851888905 s1.884218294038582,4.3874299851888905 4.199670180723333,4.3874299851888905 c0.3820236007265333,0 0.7452698423784022,-0.07102680632609135 1.0968610754750256,-0.17114094588117623 L17.462543892048952,31.920940613425557 l-4.013190839484596,6.289596697228991 c-0.3522387556731701,-0.10146694534366144 -0.7154849973250389,-0.17181727950737494 -1.0975085980515717,-0.17181727950737494 c-2.3154518866847518,0 -4.199670180723333,1.968458351765728 -4.199670180723333,4.3874299851888905 S10.036392700435565,46.813579862988774 12.351844454512785,46.813579862988774 c1.157725943342376,0 2.2079672498114826,-0.49245289329071107 2.9681294484127996,-1.2866005954267143 l13.004344027399492,6.792872590973031 c-0.027842409931254405,0.20158094636256704 -0.05956982271425732,0.4031618927251341 -0.05956982271425732,0.6128602279638777 c0,2.418971633423162 1.884218294038582,4.3874299851888905 4.199670180723333,4.3874299851888905 s4.199670180723333,-1.968458351765728 4.199670180723333,-4.3874299851888905 c0,-0.20969833523874296 -0.032374935359549536,-0.41127928160131 -0.05956982271425732,-0.6128602279638777 l13.004344027399492,-6.792872590973031 C50.369025137559106,46.32112696969807 51.4192664440282,46.813579862988774 52.57699238737059,46.813579862988774 c2.3154518866847518,0 4.199670180723333,-1.968458351765728 4.199670180723333,-4.3874299851888905 S54.892444141447804,38.038719892611 52.57699238737059,38.038719892611 zM48.7036611201188,38.8545140112622 l-4.246289949729252,-2.218743492849171 l1.4154299832430843,-2.2173905485244156 L48.7036611201188,38.8545140112622 zM33.56127949641671,48.71709938081745 C33.20968826332008,48.6156324354738 32.84644202166822,48.54528210131008 32.46441842094168,48.54528210131008 s-0.7446223198018551,0.07035033416371345 -1.0968610754750256,0.17046447371879828 l-7.022760141506005,-11.004426602216459 l5.150196856022668,-2.6909029139494427 C30.255803781161184,35.815917705323734 31.306044955022763,36.308370598614445 32.46441842094168,36.308370598614445 s2.209262162357045,-0.49245289329071107 2.969424493565893,-1.28795353975147 l5.150196856022668,2.6909029139494427 L33.56127949641671,48.71709938081745 zM31.368204735435675,15.125458179659862 C31.719796101139835,15.226248791377323 32.08304221018417,15.296599125541036 32.46441842094168,15.296599125541036 s0.7446223198018551,-0.07035033416371345 1.0962136855060105,-0.17114094588117623 l7.022112751536989,11.004426602216459 l-5.150196856022668,2.6909029139494427 C34.672385670753165,28.02596352152738 33.622144364284054,27.53351062823667 32.46441842094168,27.53351062823667 s-2.2079672498114826,0.49245289329071107 -2.9681294484127996,1.2872770675890928 l-5.150844245991683,-2.6909029139494427 L31.368204735435675,15.125458179659862 zM34.01193797071409,31.920940613425557 c0,0.8915560915777565 -0.6941175479441879,1.6167064038748027 -1.5475195497724055,1.6167064038748027 S30.91689887116928,32.81249670500331 30.91689887116928,31.920940613425557 S31.61101641911347,30.304234209550756 32.46441842094168,30.304234209550756 S34.01193797071409,31.029384521847803 34.01193797071409,31.920940613425557 zM28.324318062932605,31.30672744113693 C28.296475653001355,31.508984859661872 28.264748240218353,31.710565806024434 28.264748240218353,31.920940613425557 c0,0.20969833523874296 0.031727412783002895,0.4106028094389324 0.05956982271425732,0.6128602279638777 l-5.462290670632791,2.853249998792064 L20.650175139636588,31.920940613425557 l2.2124996426322463,-3.4674631710806967 L28.324318062932605,31.30672744113693 zM36.60451877895076,32.533800841389436 C36.63171366630547,32.33154342286449 36.664088601665014,32.1306389486643 36.664088601665014,31.920940613425557 c0,-0.21037480740112072 -0.032374935359549536,-0.4119557537636878 -0.05956982271425732,-0.6142131722886326 l5.46099575808723,-2.853249998792064 L44.27866170224679,31.920940613425557 l-2.211852252663231,3.4661102267559407 L36.60451877895076,32.533800841389436 zM44.45607612523646,27.20475776411334 l4.247584994882345,-2.218743492849171 l-2.8308599664861682,4.437486985698342 L44.45607612523646,27.20475776411334 zM52.57699238737059,19.797672000851673 c0.8534020018282175,0 1.5475195497724055,0.7251503122970457 1.5475195497724055,1.6167064038748027 s-0.6941175479441879,1.6167064038748027 -1.5475195497724055,1.6167064038748027 S51.02947283759818,22.305934496304232 51.02947283759818,21.414378404726477 S51.723590385542366,19.797672000851673 52.57699238737059,19.797672000851673 zM48.4368920293615,22.02723863269035 l-5.463585715785885,2.853926470954442 l-6.636851537927723,-10.401036568917334 l12.100437253713608,6.321389642035138 C48.4096971420068,21.00377559528754 48.37732220664725,21.20468006948773 48.37732220664725,21.414378404726477 S48.4096971420068,21.824981214165412 48.4368920293615,22.02723863269035 zM32.46441842094168,9.292462736477344 c0.8534020018282175,0 1.5475195497724055,0.7251503122970457 1.5475195497724055,1.6167064038748027 S33.3178204227699,12.525875544226949 32.46441842094168,12.525875544226949 s-1.5475195497724055,-0.7251503122970457 -1.5475195497724055,-1.6167064038748027 S31.61101641911347,9.292462736477344 32.46441842094168,9.292462736477344 zM28.593029588812012,14.48012853472746 L21.954883005731197,24.881165103644793 l-5.4629381932093395,-2.853926470954442 C16.519787222453115,21.824981214165412 16.551514635236117,21.62407673996522 16.551514635236117,21.414378404726477 s-0.031727412783002895,-0.4106028094389324 -0.05956982271425732,-0.6128602279638777 L28.593029588812012,14.48012853472746 zM10.804324904740378,21.414378404726477 c0,-0.8915560915777565 0.6941175479441879,-1.6167064038748027 1.5475195497724055,-1.6167064038748027 S13.89936400428519,20.522822313148716 13.89936400428519,21.414378404726477 s-0.6941175479441879,1.6167064038748027 -1.5475195497724055,1.6167064038748027 S10.804324904740378,22.305934496304232 10.804324904740378,21.414378404726477 zM16.22517572176456,24.986014271264168 l4.246937472305799,2.218743492849171 l-1.4154299832430843,2.218743492849171 L16.22517572176456,24.986014271264168 zM20.471465804101342,36.635770518413025 l-4.246289949729252,2.218743492849171 l2.8315074890627145,-4.436134041373586 L20.471465804101342,36.635770518413025 zM12.351844454512785,44.04285628167469 c-0.8534020018282175,0 -1.5475195497724055,-0.7251503122970457 -1.5475195497724055,-1.6167064038748027 s0.6941175479441879,-1.6167064038748027 1.5475195497724055,-1.6167064038748027 S13.89936400428519,41.53459378622213 13.89936400428519,42.42614987779989 S13.205246456341001,44.04285628167469 12.351844454512785,44.04285628167469 zM16.491944812521858,41.81328964983601 l5.462290670632791,-2.853249998792064 l6.637499060504269,10.401036568917334 l-12.09978973113706,-6.320713169872761 C16.519787222453115,42.837429159401196 16.551514635236117,42.63584821303863 16.551514635236117,42.42614987779989 S16.519787222453115,42.01487059619858 16.491944812521858,41.81328964983601 zM32.46441842094168,54.54941849037377 c-0.8534020018282175,0 -1.5475195497724055,-0.7251503122970457 -1.5475195497724055,-1.6167064038748027 S31.61101641911347,51.316005682624166 32.46441842094168,51.316005682624166 s1.5475195497724055,0.7251503122970457 1.5475195497724055,1.6167064038748027 S33.3178204227699,54.54941849037377 32.46441842094168,54.54941849037377 zM36.33774968819346,49.361076219961284 l6.636851537927723,-10.401036568917334 l5.462290670632791,2.853249998792064 C48.4096971420068,42.01487059619858 48.37732220664725,42.216451542561146 48.37732220664725,42.42614987779989 s0.032374935359549536,0.41127928160131 0.05956982271425732,0.6142131722886326 L36.33774968819346,49.361076219961284 zM52.57699238737059,44.04285628167469 C51.723590385542366,44.04285628167469 51.02947283759818,43.31770596937764 51.02947283759818,42.42614987779989 s0.6941175479441879,-1.6167064038748027 1.5475195497724055,-1.6167064038748027 s1.5475195497724055,0.7251503122970457 1.5475195497724055,1.6167064038748027 S53.430394389198796,44.04285628167469 52.57699238737059,44.04285628167469 z" id="svg_1" class=""/></g></svg>